<?xml version="1.0" encoding="UTF-8"?>
<svg id="Ebene_2" data-name="Ebene 2" xmlns="http://www.w3.org/2000/svg" viewBox="0 0 567.3 481.7" fill="#ffffff">
  <g id="Layer_1" data-name="Layer 1">
    <g>
      <g>
        <g>
          <g>
            <g>
              <path d="M227.52,126.14c-.21-.1-.42-.2-.62-.3.22.09.42.19.62.3Z"/>
              <path d="M227.55,126.15c.07.04.15.09.22.14.03.01.05.03.08.05-.04-.04-.08-.07-.12-.11t-.03-.01s0,0-.03,0c0-.01-.02-.01-.03-.02,0-.01-.02-.01-.03-.01-.02,0-.04-.02-.06-.03Z"/>
            </g>
            <path d="M227.51,138c.15.09.29.19.42.29-.09-.07-.18-.14-.28-.22-.05-.03-.09-.05-.14-.07Z"/>
            <g>
              <path d="M224.47,355.6c-.21.1-.42.2-.63.3.22-.08.43-.18.63-.3Z"/>
              <path d="M224.5,355.59s.09-.04.13-.07c.11-.08.2-.15.28-.21-.13.11-.27.2-.42.28Z"/>
            </g>
            <path d="M227.55,126.15c.07.04.15.09.22.14.03.01.05.03.08.05-.04-.04-.08-.07-.12-.11t-.03-.01s0,0-.03,0c0-.01-.02-.01-.03-.02,0-.01-.02-.01-.03-.01-.02,0-.04-.02-.06-.03Z"/>
            <g>
              <path d="M226.9,125.84c.22.09.42.19.62.3-.21-.1-.42-.2-.62-.3Z"/>
              <path d="M227.55,126.15c.07.04.15.09.22.14.03.01.05.03.08.05-.04-.04-.08-.07-.12-.11t-.03-.01s0,0-.03,0c0-.01-.02-.01-.03-.02,0-.01-.02-.01-.03-.01-.02,0-.04-.02-.06-.03Z"/>
            </g>
            <path d="M227.52,126.14c-.21-.1-.42-.2-.62-.3.22.09.42.19.62.3Z"/>
          </g>
          <g>
            <path d="M125.81,115.36c.27-.19,6.75-4.63,15.17-6.55,1.32-.29,2.92-.54,4.78-.73-3.04-2.67-5.99-6.13-8.35-10.54-8.59-16.13-2.19-31.85-.61-35.26-.39,4.01-1.27,18.1,8.1,31.26,5.9,8.29,13.25,12.52,17.24,14.44.1.05.2.09.29.13h.02c12.17.91,27.79,3.71,44.92,9.68.92.32,1.83.66,2.77.99-3.26-5.4-6.04-12.22-7.01-20.44-2.12-17.81,5.74-31.18,9.14-36.01.02,0,0,0,.01,0-1.7,5.64-4.86,18.92-.73,35,3.84,14.94,12.01,24.6,16.08,28.86,0-.01-.02-.01-.03-.01.06.04.11.07.16.11.03.01.05.03.08.05-.04-.04-.08-.07-.12-.11,7.89,3.83,16.2,8.53,24.56,14.3,2.99,2.06,6,4.26,8.98,6.61h0s-.03,10.99-.03,10.99h0c-2.98-2.55-5.98-4.93-8.98-7.16-9.26-6.89-18.56-12.35-27.34-16.66-7.78,3.57-21.07,10.95-32.61,25.16-7.4,9.11-11.69,18.09-14.22,24.73-.21-10.15,2.1-20.1,6.73-28.74,7.64-14.29,19.85-22.07,29.02-26.13-3.22-1.32-6.3-2.48-9.25-3.52-13.68-4.82-35.94-12.52-61.69-8.71-6.39.94-16.02,3.05-27.25,8.36,2.88-4,6.31-7.41,10.18-10.1Z"/>
            <path d="M81.09,140.99c.05-.02.1-.04.15-.06h0c-.05,0-.1.03-.15.06Z"/>
            <path d="M80.44,288.57c2.46-2.48,9.54-9.44,21.04-12.43,2.74-.71,6.81-1.48,11.89-1.39.87-3.19,2.09-6.9,3.83-10.92,1.07-2.47,2.88-6.29,5.62-10.68,2.41-3.86,5.95-8.8,10.98-13.94-2.95-2.34-6.57-5.74-9.89-10.47-6.05-8.64-7.94-17.24-8.62-22.16-5.38-.04-20.64-.88-33.11-12.15-7.96-7.2-14.23-21.55-14.3-34.12,2.09,5.21,5.95,12.76,13.09,19.76,15.35,15.06,34.57,16.52,40.22,16.74,3.63,21.18,16.98,38.35,35.15,44.48,1.74.59,21.15,6.8,39.34-3.39,23.05-12.92,15.96-36.35,36.31-46.93,6.01-3.14,12.95-4.39,20.15-4.13,2.97.1,5.99.47,9,1.07h.01s-.03,9.15-.03,9.15h-.01c-1.97-.54-4.24-.94-6.79-1.06-.75-.03-1.49-.03-2.21,0-7.9.22-13.82,3.37-16.46,4.98-2.06,1.41-5.16,3.83-7.85,7.63-4.57,6.4-4.4,11.41-7.26,17.85-1.8,4.08-5.27,9.7-12.59,15.3,2.88,2.19,7.13,5.98,10.3,11.81,4.37,7.99,3.13,13.33,7.76,19.9,1.98,2.83,5.6,6.68,12.59,9.64,2.69.9,7.49,2.19,13.25,1.87,2.49-.13,5.16-.56,7.91-1.46.37-.12.72-.25,1.09-.39h.01s-.03,10.39-.03,10.39h-.01c-3,.7-6.01,1.17-9,1.39-8.03.61-15.85-.61-22.5-4.11-18.35-9.7-14.18-29.78-30.26-43.19-1.05.75-2.18,1.46-3.42,2.14-18.19,10.21-37.6,3.98-39.34,3.39-5.02-1.69-9.66-4.22-13.84-7.46-12.26,8.25-21.01,22.21-23.9,38.6-5.89.04-20.67.97-34.85,11.16-8.38,6.03-13.42,13.04-16.22,17.73.01-.22.04-.43.08-.65,1.7-7.81,5.39-16.46,12.85-23.96Z"/>
            <path d="M139.77,364.14c27.08,3.22,49.49-4.2,61.75-8.36,2.95-1,6.06-2.15,9.26-3.46-9.14-4.12-21.29-11.97-28.85-26.31-4.6-8.73-6.86-18.74-6.56-28.97,2.46,6.68,6.69,15.76,14.09,25,11.46,14.31,24.72,21.77,32.46,25.36,9.54-4.62,19.73-10.58,29.81-18.26,3.03-2.29,6.03-4.74,9.02-7.35h.01s-.03,11.12-.03,11.12h-.01c-3,2.42-6.01,4.68-9.02,6.8-9.2,6.49-18.38,11.69-27.06,15.8.02,0,.04-.03.06-.05-.02,0-.04.03-.07.05-11.46,7.53-14.43,21.17-16.3,28.8-3.38,13.89-1.99,26.02-.4,33.64-3.66-5.72-10.06-18.36-8.02-34.69,1.01-8.23,3.83-15.01,7.12-20.41-.93.34-1.84.65-2.76.97-8.58,2.93-16.79,5.08-24.37,6.61-7.58,1.51-14.53,2.4-20.62,2.81-.1.06-.21.09-.3.13,0,0-.57.25-1.15.54-10.95,5.39-17.41,12.6-17.41,12.6-6.39,7.14-9.22,14.76-10.5,19.33-.65-6.34-.03-14.21,4.27-22.17,2.39-4.41,5.36-7.85,8.41-10.51-1.84-.2-3.44-.44-4.76-.75-8.4-1.98-14.87-6.43-15.15-6.62-3.04-2.13-5.79-4.71-8.21-7.67,10.34,3.73,19.15,5.3,25.29,6.02Z"/>
            <path d="M107.36,346.29s0,.01,0,.02c.11-.2.21-.41.33-.61-.11.2-.23.39-.34.59Z"/>
          </g>
        </g>
        <path d="M1.74,257.97c.82,4.24,1.91,8.49,3.29,12.62l.29.88c1.68,4.9,3.76,9.76,6.2,14.44,11.14,21.33,29.85,39.18,52.7,50.27,3.44,1.67,7,3.2,10.6,4.55,6.58,2.48,13.4,4.4,20.34,5.75-10.31,23.3-6.2,50.71,11.02,68.96,11.68,12.37,28.16,19.11,45.17,19.16,4.51.01,9.05-.44,13.55-1.39,1.33,10,5.34,19.59,11.62,27.54,7.68,9.74,18.46,16.66,30.33,19.48,3.23.77,6.56,1.25,9.89,1.41h.14c.55.03,1.35.06,2.31.06,12.39.03,28.13-4.47,39.8-16.42.07-.07.13-.14.2-.21,7.83-8.1,12.05-19.03,12.09-30.29l.02-7.77c.02-7.15.04-14.31.06-21.46.03-10.8.06-21.61.1-32.41.04-13.54.08-27.08.12-40.62.05-15.36.09-30.72.14-46.08.05-16.27.1-32.53.14-48.8.05-16.26.1-32.52.14-48.78.05-15.34.09-30.67.14-46.01.04-13.5.08-27,.12-40.5.02-7.37.04-14.75.07-22.12.02-7.1.22-14.2.39-21.31.17-7.16.21-14.37-.97-21.46-.82-4.94-2.85-9.8-5.48-14.05-5.43-8.76-13.89-15.41-23.37-19.32-5.25-2.17-10.83-3.51-16.49-3.95-2-.15-4-.19-6-.1-8.12.38-14.06,2.81-15.87,3.59-8.75,3.79-16.13,10.46-21.35,19.28-3.74,6.31-6.15,13.37-7.15,20.78-23.89-9.99-51.79-4.87-70.31,13.63-9.65,9.64-15.84,21.93-17.93,35.56-1.73,11.36-.48,22.74,3.64,33.31-7.05,1.85-13.89,4.3-20.45,7.29-3,1.37-5.97,2.87-8.8,4.44-21.3,11.84-38.4,29.33-49.46,50.57-2.99,5.73-5.49,11.71-7.45,17.79,0,0-.26.81-.26.82-5.28,16.77-6.41,34.34-3.27,50.85ZM15.59,209.64l.11-.33c1.76-5.38,4-10.69,6.65-15.79,10.08-19.35,25.67-35.29,45.11-46.1.77-.43,1.54-.85,2.33-1.25.59-.32,1.19-.63,1.79-.92,1.29-.65,2.59-1.27,3.91-1.88.49-.23.98-.45,1.48-.67.65-.28,1.31-.57,1.97-.83.66-.28,1.32-.56,1.99-.81.06-.02.11-.04.16-.06.05-.02.1-.04.15-.06h0c6.12-2.4,12.46-4.3,18.95-5.65l6.98-1.45-3.27-6.34c-10.61-20.6-6.71-46.29,9.48-62.47,17.07-17.05,43.72-20.4,64.83-8.14l8.27,4.8-.12-9.57c-.22-17.1,8.82-32.57,22.48-38.51,3.73-1.62,7.76-2.53,12.01-2.69,2.61-.11,5.2.05,7.76.46,19.17,3.06,32.99,20.09,32.94,39.5l-1.14,384.64c-.02,7.34-2.54,14.52-7.4,20.02-8.9,10.08-22.01,15.93-35.75,15.28h-.11c-2.63-.14-5.25-.52-7.8-1.12-19.58-4.66-33.92-22.92-34.1-43.43l-.07-7.38-7.02,2.26c-19.44,6.25-40.67,1.09-54.11-13.14-15.34-16.27-18.03-41.44-6.69-61.68.06-.1.11-.2.16-.31.06-.1.11-.2.17-.3.11-.2.23-.4.35-.6l4.18-7.06-3.79-.51-4.35-.58c-8.73-1.17-17.3-3.31-25.47-6.39-1.24-.46-2.48-.96-3.7-1.47-.51-.2-1.02-.42-1.52-.64-.7-.29-1.4-.6-2.09-.93-.8-.36-1.59-.73-2.38-1.12-.65-.31-1.3-.63-1.94-.97-.25-.12-.5-.25-.75-.39-19.55-10.13-35.5-25.73-45.13-44.16-2.11-4.03-3.92-8.21-5.38-12.44l-.17-.49c-1.34-3.93-2.42-7.98-3.18-12.03-2.86-14.99-1.76-31,3.19-46.29Z"/>
      </g>
      <g>
        <g>
          <g>
            <g>
              <path d="M339.78,126.14c.21-.1.42-.2.62-.3-.22.09-.42.19-.62.3Z"/>
              <path d="M339.76,126.15c-.07.04-.15.09-.22.14-.03.01-.05.03-.08.05.04-.04.08-.07.12-.11t.03-.01s0,0,.03,0c0-.01.02-.01.03-.02,0-.01.02-.01.03-.01.02,0,.04-.02.06-.03Z"/>
            </g>
            <path d="M339.79,138c-.15.09-.29.19-.42.29.09-.07.18-.14.28-.22.05-.03.09-.05.14-.07Z"/>
            <g>
              <path d="M342.83,355.6c.21.1.42.2.63.3-.22-.08-.43-.18-.63-.3Z"/>
              <path d="M342.8,355.59s-.09-.04-.13-.07c-.11-.08-.2-.15-.28-.21.13.11.27.2.42.28Z"/>
            </g>
            <path d="M339.76,126.15c-.07.04-.15.09-.22.14-.03.01-.05.03-.08.05.04-.04.08-.07.12-.11t.03-.01s0,0,.03,0c0-.01.02-.01.03-.02,0-.01.02-.01.03-.01.02,0,.04-.02.06-.03Z"/>
            <g>
              <path d="M340.4,125.84c-.22.09-.42.19-.62.3.21-.1.42-.2.62-.3Z"/>
              <path d="M339.76,126.15c-.07.04-.15.09-.22.14-.03.01-.05.03-.08.05.04-.04.08-.07.12-.11t.03-.01s0,0,.03,0c0-.01.02-.01.03-.02,0-.01.02-.01.03-.01.02,0,.04-.02.06-.03Z"/>
            </g>
            <path d="M339.78,126.14c.21-.1.42-.2.62-.3-.22.09-.42.19-.62.3Z"/>
          </g>
          <g>
            <path d="M441.49,115.36c-.27-.19-6.75-4.63-15.17-6.55-1.32-.29-2.92-.54-4.78-.73,3.04-2.67,5.99-6.13,8.35-10.54,8.59-16.13,2.19-31.85.61-35.26.39,4.01,1.27,18.1-8.1,31.26-5.9,8.29-13.25,12.52-17.24,14.44-.1.05-.2.09-.29.13h-.02c-12.17.91-27.79,3.71-44.92,9.68-.92.32-1.83.66-2.77.99,3.26-5.4,6.04-12.22,7.01-20.44,2.12-17.81-5.74-31.18-9.14-36.01-.02,0,0,0-.01,0,1.7,5.64,4.86,18.92.73,35-3.84,14.94-12.01,24.6-16.08,28.86,0-.01.02-.01.03-.01-.06.04-.11.07-.16.11-.03.01-.05.03-.08.05.04-.04.08-.07.12-.11-7.89,3.83-16.2,8.53-24.56,14.3-2.99,2.06-6,4.26-8.98,6.61h0s.03,10.99.03,10.99h0c2.98-2.55,5.98-4.93,8.98-7.16,9.26-6.89,18.56-12.35,27.34-16.66,7.78,3.57,21.07,10.95,32.61,25.16,7.4,9.11,11.69,18.09,14.22,24.73.21-10.15-2.1-20.1-6.73-28.74-7.64-14.29-19.85-22.07-29.02-26.13,3.22-1.32,6.3-2.48,9.25-3.52,13.68-4.82,35.94-12.52,61.69-8.71,6.39.94,16.02,3.05,27.25,8.36-2.88-4-6.31-7.41-10.18-10.1Z"/>
            <path d="M486.21,140.99c-.05-.02-.1-.04-.15-.06h0c.05,0,.1.03.15.06Z"/>
            <path d="M486.87,288.57c-2.46-2.48-9.54-9.44-21.04-12.43-2.74-.71-6.81-1.48-11.89-1.39-.87-3.19-2.09-6.9-3.83-10.92-1.07-2.47-2.88-6.29-5.62-10.68-2.41-3.86-5.95-8.8-10.98-13.94,2.95-2.34,6.57-5.74,9.89-10.47,6.05-8.64,7.94-17.24,8.62-22.16,5.38-.04,20.64-.88,33.11-12.15,7.96-7.2,14.23-21.55,14.3-34.12-2.09,5.21-5.95,12.76-13.09,19.76-15.35,15.06-34.57,16.52-40.22,16.74-3.63,21.18-16.98,38.35-35.15,44.48-1.74.59-21.15,6.8-39.34-3.39-23.05-12.92-15.96-36.35-36.31-46.93-6.01-3.14-12.95-4.39-20.15-4.13-2.97.1-5.99.47-9,1.07h-.01s.03,9.15.03,9.15h.01c1.97-.54,4.24-.94,6.79-1.06.75-.03,1.49-.03,2.21,0,7.9.22,13.82,3.37,16.46,4.98,2.06,1.41,5.16,3.83,7.85,7.63,4.57,6.4,4.4,11.41,7.26,17.85,1.8,4.08,5.27,9.7,12.59,15.3-2.88,2.19-7.13,5.98-10.3,11.81-4.37,7.99-3.13,13.33-7.76,19.9-1.98,2.83-5.6,6.68-12.59,9.64-2.69.9-7.49,2.19-13.25,1.87-2.49-.13-5.16-.56-7.91-1.46-.37-.12-.72-.25-1.09-.39h-.01s.03,10.39.03,10.39h.01c3,.7,6.01,1.17,9,1.39,8.03.61,15.85-.61,22.5-4.11,18.35-9.7,14.18-29.78,30.26-43.19,1.05.75,2.18,1.46,3.42,2.14,18.19,10.21,37.6,3.98,39.34,3.39,5.02-1.69,9.66-4.22,13.84-7.46,12.26,8.25,21.01,22.21,23.9,38.6,5.89.04,20.67.97,34.85,11.16,8.38,6.03,13.42,13.04,16.22,17.73-.01-.22-.04-.43-.08-.65-1.7-7.81-5.39-16.46-12.85-23.96Z"/>
            <path d="M427.53,364.14c-27.08,3.22-49.49-4.2-61.75-8.36-2.95-1-6.06-2.15-9.26-3.46,9.14-4.12,21.29-11.97,28.85-26.31,4.6-8.73,6.86-18.74,6.56-28.97-2.46,6.68-6.69,15.76-14.09,25-11.46,14.31-24.72,21.77-32.46,25.36-9.54-4.62-19.73-10.58-29.81-18.26-3.03-2.29-6.03-4.74-9.02-7.35h-.01s.03,11.12.03,11.12h.01c3,2.42,6.01,4.68,9.02,6.8,9.2,6.49,18.38,11.69,27.06,15.8-.02,0-.04-.03-.06-.05.02,0,.04.03.07.05,11.46,7.53,14.43,21.17,16.3,28.8,3.38,13.89,1.99,26.02.4,33.64,3.66-5.72,10.06-18.36,8.02-34.69-1.01-8.23-3.83-15.01-7.12-20.41.93.34,1.84.65,2.76.97,8.58,2.93,16.79,5.08,24.37,6.61,7.58,1.51,14.53,2.4,20.62,2.81.1.06.21.09.3.13,0,0,.57.25,1.15.54,10.95,5.39,17.41,12.6,17.41,12.6,6.39,7.14,9.22,14.76,10.5,19.33.65-6.34.03-14.21-4.27-22.17-2.39-4.41-5.36-7.85-8.41-10.51,1.84-.2,3.44-.44,4.76-.75,8.4-1.98,14.87-6.43,15.15-6.62,3.04-2.13,5.79-4.71,8.21-7.67-10.34,3.73-19.15,5.3-25.29,6.02Z"/>
            <path d="M459.94,346.29s0,.01,0,.02c-.11-.2-.21-.41-.33-.61.11.2.23.39.34.59Z"/>
          </g>
        </g>
        <path d="M562.29,207.11s-.26-.82-.26-.82c-1.96-6.07-4.47-12.06-7.45-17.79-11.06-21.25-28.16-38.74-49.46-50.57-2.83-1.57-5.8-3.07-8.8-4.44-6.56-2.99-13.41-5.44-20.45-7.29,4.12-10.57,5.37-21.96,3.64-33.31-2.08-13.62-8.28-25.92-17.93-35.56-18.53-18.51-46.42-23.62-70.31-13.63-1-7.41-3.41-14.47-7.15-20.78-5.22-8.81-12.6-15.48-21.35-19.28-1.81-.78-7.75-3.21-15.87-3.59-2-.09-4-.06-6,.1-5.66.44-11.24,1.78-16.49,3.95-9.48,3.91-17.94,10.55-23.37,19.32-2.63,4.25-4.66,9.11-5.48,14.05-1.18,7.09-1.15,14.3-.97,21.46.17,7.11.37,14.2.39,21.31.02,7.37.04,14.75.07,22.12.04,13.5.08,27,.12,40.5.05,15.34.09,30.67.14,46.01.05,16.26.1,32.52.14,48.78.05,16.27.1,32.53.14,48.8.05,15.36.09,30.72.14,46.08.04,13.54.08,27.08.12,40.62l.1,32.41c.02,7.15.04,14.31.06,21.46,0,2.59.02,5.18.02,7.77.03,11.27,4.26,22.19,12.09,30.29.07.07.13.14.2.21,11.68,11.95,27.41,16.45,39.8,16.42.96,0,1.76-.03,2.31-.06h.14c3.33-.16,6.66-.64,9.89-1.41,11.87-2.82,22.65-9.74,30.33-19.48,6.28-7.96,10.29-17.54,11.62-27.54,4.5.95,9.04,1.4,13.55,1.39,17.01-.05,33.49-6.79,45.17-19.16,17.22-18.25,21.33-45.66,11.02-68.96,6.95-1.35,13.76-3.27,20.34-5.75,3.6-1.35,7.16-2.88,10.6-4.55,22.85-11.09,41.56-28.93,52.7-50.27,2.44-4.68,4.52-9.53,6.2-14.44l.29-.88c1.38-4.13,2.48-8.38,3.29-12.62,3.14-16.51,2.01-34.08-3.27-50.85ZM554.9,255.93c-.77,4.05-1.85,8.1-3.18,12.03l-.17.49c-1.47,4.22-3.27,8.41-5.38,12.44-9.63,18.44-25.58,34.04-45.13,44.16-.25.14-.5.27-.75.39-.64.33-1.29.65-1.94.97-.79.38-1.58.75-2.38,1.12-.69.32-1.39.63-2.09.93-.5.22-1.01.44-1.52.64-1.22.51-2.46,1.01-3.7,1.47-8.17,3.07-16.74,5.22-25.47,6.39l-4.35.58-3.79.51,4.18,7.06c.12.2.24.4.35.6.06.1.11.2.17.3.05.11.1.21.16.31,11.34,20.24,8.65,45.41-6.69,61.68-13.44,14.23-34.67,19.39-54.11,13.14l-7.02-2.26-.07,7.38c-.18,20.51-14.53,38.77-34.1,43.43-2.55.61-5.17.99-7.8,1.11h-.11c-13.74.66-26.84-5.19-35.75-15.27-4.86-5.5-7.38-12.68-7.4-20.02l-1.14-384.64c-.06-19.41,13.76-36.44,32.94-39.5,2.55-.41,5.15-.57,7.76-.46,4.25.17,8.28,1.08,12.01,2.69,13.67,5.94,22.7,21.41,22.48,38.51l-.12,9.57,8.27-4.8c21.11-12.26,47.76-8.91,64.83,8.14,16.2,16.18,20.09,41.87,9.48,62.47l-3.27,6.34,6.98,1.45c6.48,1.35,12.83,3.25,18.95,5.64h0s.1.05.15.07c.05.02.1.04.16.06.67.26,1.33.54,1.99.81.66.27,1.32.56,1.97.83.5.22.99.44,1.48.67,1.31.61,2.61,1.23,3.91,1.88.6.3,1.2.61,1.79.92.79.41,1.56.83,2.33,1.25,19.43,10.8,35.03,26.75,45.11,46.1,2.65,5.1,4.89,10.41,6.65,15.79l.11.33c4.95,15.3,6.04,31.3,3.19,46.29Z"/>
      </g>
    </g>
  </g>
</svg>
